<svg xmlns="http://www.w3.org/2000/svg" width="48" height="48" fill="none" viewBox="0 0 48 48"><path fill="#CBD9E6" d="M20.335 34.126v1.535l9.137-.009v-1.506l-9.137-.02Z"/><path fill="#000" d="M18.808 34.123v1.538H8.144v1.523H40.133v-1.532H30.98V34.15l-1.507-.004v1.506l-9.137.008v-1.534l-1.527-.003ZM8.144 37.184H6.621v1.495l1.523.02v-1.515ZM6.62 38.679H5.113v1.58H6.62v-1.58ZM5.112 40.26H3.574v1.466l1.521.001.017-1.468Z"/><path fill="#000" fill-rule="evenodd" d="M3.574 41.726h-1.51v1.552H.543v4.541h47.201v-4.543H3.574v-1.55Zm-1.51 4.572V44.8h44.123v1.498H2.065Z" clip-rule="evenodd"/><path fill="#000" d="M46.255 43.276v-1.502H44.71v1.503h1.545ZM44.71 41.774v-1.517h-1.544l.014 1.515 1.53.002ZM43.166 40.257V38.7h-1.489v1.558h1.489ZM41.677 38.699V37.21h-1.544V38.7h1.544Z"/><path fill="#EDF6FF" d="M8.144 38.699h1.54v-1.515h-1.54v1.515Z"/><path fill="#CBD9E6" d="m8.144 40.26 1.54-.001v-1.56h-1.54v1.56Z"/><path fill="#EDF6FF" d="m8.144 38.699-1.523-.02v1.58h1.523V38.7ZM6.62 40.26H5.113l-.017 1.467 1.526.002v-1.47Z"/><path fill="#CBD9E6" d="M8.144 41.731v-1.472H6.621v1.47l1.523.002Z"/><path fill="#000" d="M9.684 40.259h-1.54v1.472l1.54.002v-1.474Z"/><path fill="#CBD9E6" d="M8.144 43.277h1.54v-1.544l-1.54-.002v1.546Z"/><path fill="#B7BDC9" d="M6.62 43.277h1.524V41.73l-1.523-.002v1.548Z"/><path fill="#CBD9E6" d="M5.095 41.727v1.55h1.526v-1.548l-1.526-.002Z"/><path fill="#EDF6FF" d="M3.574 41.726v1.55h1.521v-1.549l-1.521-.001Z"/><path fill="#CBD9E6" d="M11.196 37.184H9.684v1.515h1.512v-1.515Z"/><path fill="#000" d="M9.684 38.699v1.56h1.512v-1.56H9.684Z"/><path fill="#CBD9E6" d="M9.684 40.259v1.474l1.512.002v-1.476H9.684Z"/><path fill="#B7BDC9" d="M9.684 43.277h1.512v-1.543l-1.512-.001v1.544Z"/><path fill="#CBD9E6" d="M2.065 44.8v1.498h44.122V44.8H2.065ZM11.196 43.277h1.498v-1.54l-1.498-.003v1.543Z"/><path fill="#000" d="M12.694 40.259h-1.498v1.475l1.498.002V40.26Z"/><path fill="#CBD9E6" d="M12.694 38.699h-1.498v1.56h1.498v-1.56Z"/><path fill="#B7BDC9" d="M12.694 37.184h-1.498v1.515h1.498v-1.515Z"/><path fill="#CBD9E6" d="M14.26 37.184h-1.566v1.515h1.566v-1.515Z"/><path fill="#000" d="M12.694 40.259h1.566v-1.56h-1.566v1.56Z"/><path fill="#CBD9E6" d="m12.694 41.736 1.566.002v-1.48h-1.566v1.478Z"/><path fill="#B7BDC9" d="M12.694 43.277h1.566v-1.539l-1.566-.002v1.54Z"/><path fill="#CBD9E6" d="M14.26 43.277h1.512V41.74l-1.512-.002v1.539Z"/><path fill="#000" d="M15.772 40.259H14.26v1.48h1.512v-1.48Z"/><path fill="#CBD9E6" d="M15.772 38.699H14.26v1.56h1.512v-1.56Z"/><path fill="#B7BDC9" d="M15.772 37.184H14.26v1.515h1.512v-1.515Z"/><path fill="#CBD9E6" d="M17.297 37.184h-1.525v1.515h1.525v-1.515Z"/><path fill="#000" d="M15.772 40.259h1.525v-1.56h-1.525v1.56Z"/><path fill="#CBD9E6" d="m15.772 41.74 1.525.002v-1.483h-1.525v1.48Z"/><path fill="#B7BDC9" d="M15.772 43.277h1.525v-1.535l-1.525-.002v1.537Z"/><path fill="#CBD9E6" d="M17.297 43.277h1.539v-1.534l-1.539-.001v1.535Z"/><path fill="#B7BDC9" d="M18.836 40.258h-1.539v1.484l1.539.001v-1.485Z"/><path fill="#CBD9E6" d="M18.836 38.699h-1.539v1.56h1.539v-1.56ZM18.836 37.184h-1.539v1.515h1.539v-1.515Z"/><path fill="#B7BDC9" d="M20.36 37.184h-1.524v1.515h1.525v-1.515Z"/><path fill="#CBD9E6" d="M18.836 40.258h1.525V38.7h-1.525v1.56Z"/><path fill="#CBD9E6" d="m18.836 41.743 1.525.002v-1.487h-1.525v1.485Z"/><path fill="#CBD9E6" d="M18.836 43.277h1.525v-1.532l-1.525-.002v1.534Z"/><path fill="#B7BDC9" d="M20.36 43.277h1.506v-1.53l-1.505-.002v1.532Z"/><path fill="#CBD9E6" d="M21.866 40.258h-1.505v1.487l1.505.002v-1.489Z"/><path fill="#000" d="M21.866 38.699h-1.505v1.56h1.505v-1.56Z"/><path fill="#CBD9E6" d="M21.866 37.184h-1.505v1.515h1.505v-1.515Z"/><path fill="#B7BDC9" d="M23.384 37.184h-1.518v1.515h1.518v-1.515Z"/><path fill="#CBD9E6" d="M21.866 40.258h1.518V38.7h-1.518v1.56Z"/><path fill="#000" d="m21.866 41.747 1.518.002v-1.49h-1.518v1.488Z"/><path fill="#CBD9E6" d="M21.866 43.277h1.518v-1.528l-1.518-.002v1.53Z"/><path fill="#B7BDC9" d="M23.384 43.277h1.526V41.75l-1.526-.002v1.528Z"/><path fill="#CBD9E6" d="M24.91 40.258h-1.526v1.49l1.526.003v-1.493Z"/><path fill="#000" d="M24.91 38.699h-1.526v1.56h1.526v-1.56Z"/><path fill="#CBD9E6" d="M24.91 37.184h-1.526v1.515h1.526v-1.515Z"/><path fill="#B7BDC9" d="M26.435 37.184H24.91v1.515h1.525v-1.515Z"/><path fill="#CBD9E6" d="M24.91 40.258h1.525V38.7H24.91v1.56Z"/><path fill="#000" d="m24.91 41.75 1.525.002v-1.494H24.91v1.492Z"/><path fill="#CBD9E6" d="M24.91 43.277h1.525v-1.525l-1.525-.002v1.527Z"/><path fill="#B7BDC9" d="M26.435 43.277h1.525v-1.523l-1.525-.002v1.525Z"/><path fill="#CBD9E6" d="M27.96 40.258h-1.525v1.494l1.525.002v-1.496Z"/><path fill="#000" d="M27.96 38.699h-1.525v1.56l1.525-.001v-1.559Z"/><path fill="#CBD9E6" d="M27.96 37.184h-1.525v1.515h1.525v-1.515ZM29.499 37.184H27.96v1.515H29.5v-1.515ZM27.96 40.258H29.5v-1.559H27.96v1.559ZM27.96 41.754l1.539.002v-1.498H27.96v1.496Z"/><path fill="#CBD9E6" d="M27.96 43.277H29.5v-1.521l-1.539-.002v1.523Z"/><path fill="#CBD9E6" d="M29.499 43.277h1.465v-1.52l-1.465-.001v1.52Z"/><path fill="#B7BDC9" d="M30.964 40.258h-1.465v1.498l1.465.002v-1.5Z"/><path fill="#CBD9E6" d="M30.964 38.699h-1.465v1.559h1.465v-1.559ZM30.964 37.184h-1.465v1.515h1.465v-1.515ZM32.522 37.184h-1.558v1.515h1.558v-1.515Z"/><path fill="#000" d="M30.964 40.258h1.558v-1.559h-1.558v1.559Z"/><path fill="#B7BDC9" d="M30.964 43.277h1.558v-1.518l-1.558-.001v1.519Z"/><path fill="#CBD9E6" d="M30.964 40.258v1.5l1.558.001v-1.501h-1.558Z"/><path fill="#B7BDC9" d="M34.034 37.184h-1.512v1.515h1.512v-1.515Z"/><path fill="#CBD9E6" d="M32.522 38.699v1.559h1.512v-1.559h-1.512Z"/><path fill="#000" d="M32.522 40.258v1.501l1.512.002v-1.503h-1.512Z"/><path fill="#CBD9E6" d="M32.522 43.277h1.512V41.76l-1.512-.002v1.518Z"/><path fill="#B7BDC9" d="M34.034 43.277h1.534v-1.514l-1.534-.002v1.516Z"/><path fill="#CBD9E6" d="M35.568 40.258h-1.534v1.503l1.534.002v-1.505Z"/><path fill="#000" d="M35.568 38.699h-1.534v1.559h1.534v-1.559Z"/><path fill="#CBD9E6" d="M35.568 37.184h-1.534v1.515h1.534v-1.515Z"/><path fill="#B7BDC9" d="M37.081 37.184h-1.513v1.515h1.513v-1.515Z"/><path fill="#CBD9E6" d="M35.568 40.258h1.513v-1.559h-1.513v1.559Z"/><path fill="#000" d="m35.568 41.763 1.513.002v-1.508h-1.513v1.506Z"/><path fill="#CBD9E6" d="M35.568 43.277h1.513v-1.512l-1.513-.002v1.514Z"/><path fill="#B7BDC9" d="M37.081 43.277h1.534v-1.51l-1.534-.002v1.512Z"/><path fill="#CBD9E6" d="M38.615 40.257h-1.534v1.508l1.534.002v-1.51Z"/><path fill="#000" d="M38.615 38.699h-1.534v1.559h1.534v-1.559Z"/><path fill="#CBD9E6" d="M38.615 37.184h-1.534v1.515h1.534v-1.515Z"/><path fill="#B7BDC9" d="M40.133 37.21v-.026h-1.518v1.515h1.518V37.21Z"/><path fill="#CBD9E6" d="M40.133 40.257V38.7h-1.518v1.558h1.518Z"/><path fill="#000" d="m38.615 41.767 1.518.001v-1.51h-1.518v1.508Z"/><path fill="#CBD9E6" d="M38.615 43.277h1.518v-1.509l-1.518-.002v1.51Z"/><path fill="#B7BDC9" d="M40.133 43.277h1.544V41.77l-1.544-.002v1.509Z"/><path fill="#CBD9E6" d="M41.677 40.257h-1.544v1.511l1.544.002v-1.513Z"/><path fill="#B7BDC9" d="M41.677 38.699h-1.544v1.558h1.544V38.7ZM43.166 40.257h-1.489v1.513l1.503.002-.014-1.515Z"/><path fill="#CBD9E6" d="M41.677 43.277h1.517l-.014-1.505-1.503-.002v1.507Z"/><path fill="#B7BDC9" d="M44.71 43.277v-1.503l-1.53-.002.014 1.505h1.516Z"/><path fill="#000" d="M1.995.639h44.218v1.505H1.995V.639ZM46.213 2.144h1.457v30.471h-1.457V2.144ZM1.987 32.615h44.226v1.508H1.987v-1.508ZM.542 2.144h1.453v30.471H.542V2.144Z"/><path fill="#C7D7E7" d="M1.995 2.144h1.557v1.491H1.995V2.144ZM1.995 31.1h1.568v1.515H1.995V31.1Z"/><path fill="#EDF6FF" d="M1.995 3.635h1.557V31.1H1.995V3.635Z"/><path fill="#000" d="M3.552 29.509h1.573V31.1H3.552V29.51ZM6.683 29.509h2.953V31.1H6.683V29.51ZM11.143 29.509h1.564V31.1h-1.564V29.51Z"/><path fill="#E40001" d="M41.621 29.509h3.033V31.1h-3.033V29.51Z"/><path fill="#000" fill-rule="evenodd" d="M44.654 3.635H3.552v24.403H44.655V3.635Zm-1.56 22.931H5.11V5.126h37.985v21.44Z" clip-rule="evenodd"/><path fill="#212121" fill-rule="evenodd" d="M43.095 26.566H5.11V5.126H35.505v1.526h-1.507V8.21h-1.517v1.497h-1.527v1.558h-1.527v1.497H27.93v1.558h-1.517v1.538h-1.569v1.527h-1.517v1.507h-1.455v1.445h-1.59v1.569h-1.517v1.59h-1.538v1.465H15.71v1.589l27.385.016Z" clip-rule="evenodd"/><path fill="#2E2E2C" d="M35.505 6.652h-1.507V8.21h-1.517v1.497h-1.527v1.558h-1.527v1.497H27.93v1.558h-1.517v1.538h-1.569v1.527h-1.517v1.507h-1.455v1.445h-1.59v1.569h-1.517v1.59h-1.538v1.465H15.71v1.589l27.385.016V5.126h-7.59v1.526Z"/><path fill="#CBD9E6" d="M5.125 31.1h1.558V29.51h2.953V31.1h1.507V29.51h1.564V31.1h28.914V29.51h3.033v-1.471H3.552v1.471h1.573V31.1Z"/><path fill="#B7BDC9" d="M46.213 2.144H3.553v1.491h41.101V31.1H3.563v1.515h42.651V2.144Z"/></svg>