<svg xmlns="http://www.w3.org/2000/svg" width="1330" height="171" fill="none" viewBox="0 0 1330 171"><path fill="#fff" d="M122.651 170.443a9.214 9.214 0 0 1-9.215-9.215V66.517a9.215 9.215 0 0 0-9.215-9.215h-19.07v19.07a9.215 9.215 0 0 1-9.215 9.215H66.08a9.215 9.215 0 0 1-9.215-9.215v-19.07H85.15v-19.07a9.215 9.215 0 0 1 9.215-9.215h9.856a9.215 9.215 0 0 0 9.215-9.215V9.946a9.214 9.214 0 0 1 9.215-9.215h9.855a9.214 9.214 0 0 1 9.215 9.215v151.282a9.214 9.214 0 0 1-9.215 9.215h-9.855Zm-113.142 0a9.214 9.214 0 0 1-9.215-9.215V9.946A9.215 9.215 0 0 1 9.51.731h9.856a9.215 9.215 0 0 1 9.215 9.215v9.856a9.215 9.215 0 0 0 9.215 9.215h9.855a9.215 9.215 0 0 1 9.215 9.214v19.07h-19.07a9.215 9.215 0 0 0-9.215 9.216v94.711a9.215 9.215 0 0 1-9.215 9.215H9.509ZM179.221 170.443a9.214 9.214 0 0 1-9.214-9.215v-11.999a7.07 7.07 0 0 1 7.071-7.071 7.071 7.071 0 0 0 7.071-7.071v-99a7.071 7.071 0 0 0-7.071-7.07 7.07 7.07 0 0 1-7.071-7.072V9.946a9.214 9.214 0 0 1 9.214-9.215h38.141a9.214 9.214 0 0 1 9.215 9.215v12a7.071 7.071 0 0 1-7.071 7.07 7.07 7.07 0 0 0-7.071 7.072v98.999a7.07 7.07 0 0 0 7.071 7.071 7.071 7.071 0 0 1 7.071 7.071v11.999a9.214 9.214 0 0 1-9.215 9.215h-38.141ZM363.076 170.443a9.215 9.215 0 0 1-9.215-9.215v-52.283a9.214 9.214 0 0 0-9.215-9.215h-9.855a9.215 9.215 0 0 1-9.215-9.215v-19.07h19.07a9.214 9.214 0 0 0 9.215-9.215V9.946a9.215 9.215 0 0 1 9.215-9.215h9.856a9.215 9.215 0 0 1 9.215 9.215v151.282a9.215 9.215 0 0 1-9.215 9.215h-9.856Zm-113.141 0a9.215 9.215 0 0 1-9.215-9.215V9.946a9.215 9.215 0 0 1 9.215-9.215h11.999a7.071 7.071 0 0 1 7.071 7.071 7.071 7.071 0 0 0 7.072 7.072h11.999a9.215 9.215 0 0 1 9.215 9.215v19.07h19.07a9.215 9.215 0 0 1 9.215 9.215v19.07h-19.071a9.214 9.214 0 0 1-9.214-9.214V43.16H278.22a9.215 9.215 0 0 0-9.215 9.214v108.854a9.214 9.214 0 0 1-9.215 9.215h-9.855ZM405.504 170.443a9.215 9.215 0 0 1-9.215-9.215V9.946a9.215 9.215 0 0 1 9.215-9.215h122.997a9.215 9.215 0 0 1 9.215 9.215v9.856a9.215 9.215 0 0 1-9.215 9.215h-94.712a9.214 9.214 0 0 0-9.214 9.214v9.856a9.214 9.214 0 0 0 9.214 9.215h23.999a9.215 9.215 0 0 1 9.215 9.215v9.855a9.215 9.215 0 0 1-9.215 9.215h-23.999a9.214 9.214 0 0 0-9.214 9.215v38.141a9.215 9.215 0 0 0 9.214 9.215h94.712a9.215 9.215 0 0 1 9.215 9.215v9.855a9.215 9.215 0 0 1-9.215 9.215H405.504ZM589.359 170.443a9.215 9.215 0 0 1-9.215-9.215v-19.07h89.784a9.215 9.215 0 0 0 9.215-9.215v-9.856a9.214 9.214 0 0 1 9.215-9.214h9.855a9.215 9.215 0 0 1 9.215 9.214v12a7.071 7.071 0 0 1-7.071 7.071 7.071 7.071 0 0 0-7.072 7.071v11.999a9.214 9.214 0 0 1-9.214 9.215h-94.712Zm-9.215-28.285h-19.07a9.215 9.215 0 0 1-9.215-9.215V38.231a9.214 9.214 0 0 1 9.215-9.215h19.07v113.142Zm108.214-84.856a9.214 9.214 0 0 1-9.215-9.215v-9.856a9.215 9.215 0 0 0-9.215-9.215h-89.784V9.947a9.215 9.215 0 0 1 9.215-9.215h94.712a9.214 9.214 0 0 1 9.214 9.215v12a7.072 7.072 0 0 0 7.072 7.07 7.071 7.071 0 0 1 7.071 7.072v11.999a9.215 9.215 0 0 1-9.215 9.215h-9.855ZM872.212 170.443a9.215 9.215 0 0 1-9.215-9.215v-19.07h19.071a9.215 9.215 0 0 1 9.215 9.215v9.855a9.215 9.215 0 0 1-9.215 9.215h-9.856Zm-141.426 0a9.214 9.214 0 0 1-9.215-9.215V9.946a9.214 9.214 0 0 1 9.215-9.215H839.64a9.215 9.215 0 0 1 9.215 9.215v19.07h19.07a9.214 9.214 0 0 1 9.215 9.215v9.856a9.214 9.214 0 0 1-9.215 9.215h-19.07V29.017h-89.784a9.215 9.215 0 0 0-9.215 9.214v9.856a9.215 9.215 0 0 0 9.215 9.215h89.784v21.214a7.071 7.071 0 0 1-7.071 7.071 7.071 7.071 0 0 0-7.072 7.072v21.214h19.071a9.214 9.214 0 0 1 9.214 9.214v19.071h-19.07a9.215 9.215 0 0 1-9.215-9.215v-19.07h-19.07a9.215 9.215 0 0 1-9.215-9.215v-9.856a9.215 9.215 0 0 0-9.215-9.215h-38.141a9.215 9.215 0 0 0-9.215 9.215v66.426a9.215 9.215 0 0 1-9.215 9.215h-9.855ZM1013.64 170.443c-5.09 0-9.22-4.125-9.22-9.215V94.802c0-5.09-4.12-9.215-9.211-9.215h-52.283a9.214 9.214 0 0 0-9.215 9.215v66.426a9.215 9.215 0 0 1-9.215 9.215h-9.856a9.215 9.215 0 0 1-9.215-9.215V38.231a9.215 9.215 0 0 1 9.215-9.215h19.071v19.071a9.214 9.214 0 0 0 9.215 9.215h52.283c5.091 0 9.211-4.126 9.211-9.215v-19.07h19.07c5.09 0 9.22 4.125 9.22 9.214v122.997c0 5.09-4.13 9.215-9.22 9.215h-9.85Zm-9.22-141.427h-70.709V9.947a9.214 9.214 0 0 1 9.215-9.215h52.283c5.091 0 9.211 4.126 9.211 9.215v19.07ZM1056.07 170.443c-5.09 0-9.22-4.125-9.22-9.215V9.946c0-5.09 4.13-9.215 9.22-9.215h108.85c5.09 0 9.22 4.126 9.22 9.215v9.856c0 5.089-4.13 9.215-9.22 9.215h-80.57c-5.09 0-9.21 4.125-9.21 9.214v9.856c0 5.09 4.12 9.215 9.21 9.215h38.14c5.09 0 9.22 4.126 9.22 9.215v9.855c0 5.09-4.13 9.215-9.22 9.215h-38.14c-5.09 0-9.21 4.126-9.21 9.215v66.426c0 5.09-4.13 9.215-9.22 9.215h-9.85ZM1254.06 170.443c-5.08 0-9.21-4.125-9.21-9.215V38.231c0-5.089-4.13-9.215-9.22-9.215h-38.14c-5.09 0-9.21-4.125-9.21-9.214V9.946c0-5.09 4.12-9.215 9.21-9.215h123c5.09 0 9.22 4.126 9.22 9.215v9.856c0 5.089-4.13 9.215-9.22 9.215h-38.14c-5.09 0-9.22 4.125-9.22 9.214v122.997c0 5.09-4.12 9.215-9.21 9.215h-9.86Z"/></svg>