<svg xmlns="http://www.w3.org/2000/svg" width="606" height="510" fill="none" viewBox="0 0 606 510"><g clip-path="url(#clip0_1298_9455)"><path fill="#EF323D" d="M585.295 0H20.091A20 20 0 0 0 .092 19.995L0 489.241a20.001 20.001 0 0 0 20 20.003h565.295a20 20 0 0 0 20-20V20a20.002 20.002 0 0 0-20-19.999V0Z"/><path fill="#fff" d="M163.52 419.067h-44.1a2.022 2.022 0 0 0-1.872 1.25 2.022 2.022 0 0 0-.154.775v10.111a2.022 2.022 0 0 0 1.25 1.872c.246.102.509.154.775.154h12.102a2.025 2.025 0 0 1 2.025 2.025v35.986a2.022 2.022 0 0 0 2.026 2.025h11.795a2.022 2.022 0 0 0 1.872-1.25c.102-.246.154-.509.154-.775v-35.986a2.022 2.022 0 0 1 2.025-2.025h12.101a2.027 2.027 0 0 0 2.026-2.026v-10.111a2.022 2.022 0 0 0-2.026-2.025h.001ZM309.375 419.067h-16.883a2.025 2.025 0 0 0-2.025 2.025v50.148a2.025 2.025 0 0 0 2.025 2.025h16.806c19.138 0 31.08-10.411 31.08-27.252 0-16.535-11.482-26.946-31.003-26.946Zm-.787 40.342h-.742a2.043 2.043 0 0 1-2.058-2.025v-22.436a2.05 2.05 0 0 1 .609-1.439c.191-.188.418-.337.666-.438.249-.1.515-.151.783-.149h.898c10.27 0 15.482 3.981 15.482 13.09 0 9.417-5.213 13.397-15.638 13.397ZM394.034 419.067h-12.159a2.025 2.025 0 0 0-2.025 2.025v50.148c0 1.118.907 2.025 2.025 2.025h12.159a2.025 2.025 0 0 0 2.025-2.025v-50.148a2.025 2.025 0 0 0-2.025-2.025ZM248.948 419.067h-11.566a2.025 2.025 0 0 0-2.025 2.025v26.911c0 9.033-2.45 12.172-8.497 12.172-6.048 0-8.498-3.139-8.498-12.172v-26.911a2.025 2.025 0 0 0-2.025-2.025h-11.566a2.025 2.025 0 0 0-2.025 2.025v28.442c0 16.612 7.425 25.186 24.114 25.186 16.228 0 24.113-9.033 24.113-25.263v-28.365a2.025 2.025 0 0 0-2.025-2.025ZM67.6 440.5c-1.674-.717-6.278-2.628-6.91-2.833-4.475-1.454-4.687-3.582-3.943-5.63.744-2.048 3.758-2.96 6.638-1.79 1.546.63 5.383 4.108 5.8 4.516.278.324.647.558 1.059.67a1.804 1.804 0 0 0 1.457-.321l8.433-6.295a1.83 1.83 0 0 0 .717-1.241 1.818 1.818 0 0 0-.402-1.376c-4.59-5.547-11.244-8.588-19.126-8.588-11.636 0-20.286 7.043-20.286 16.152 0 7.957 3.556 12.66 12.88 16.712 2.41.851 5.515 2.119 6.757 2.484 5.432 1.598 5.64 4.31 4.745 6.775-.895 2.465-4.507 3.523-7.987 2.151-2.428-.957-6.232-4.632-6.497-5a1.817 1.817 0 0 0-.99-.601l-.027-.006a1.8 1.8 0 0 0-.735-.002 1.799 1.799 0 0 0-.675.289l-8.486 5.922a1.822 1.822 0 0 0-.4 2.604c4.909 6.347 12.1 9.704 20.476 9.704 12.478 0 21.358-7.732 21.358-18.22 0-6.889-3.751-11.788-13.856-16.075v-.001ZM463.18 417.612a28.548 28.548 0 0 0-26.379 17.627 28.55 28.55 0 0 0 6.19 31.116 28.545 28.545 0 0 0 14.62 7.814 28.548 28.548 0 0 0 34.123-28.004 28.552 28.552 0 0 0-28.553-28.553h-.001Zm0 41.295a12.743 12.743 0 1 1 12.743-12.742 12.762 12.762 0 0 1-3.736 9.006 12.762 12.762 0 0 1-9.006 3.736h-.001ZM553.663 440.5c-1.675-.717-6.278-2.628-6.91-2.833-4.476-1.454-4.688-3.582-3.944-5.63.744-2.048 3.759-2.96 6.639-1.79 1.546.63 5.382 4.108 5.8 4.516.278.324.647.558 1.059.67a1.805 1.805 0 0 0 1.457-.321l8.433-6.295a1.815 1.815 0 0 0 .657-1.97 1.824 1.824 0 0 0-.342-.647c-4.591-5.547-11.244-8.588-19.126-8.588-11.636 0-20.287 7.043-20.287 16.152 0 7.957 3.557 12.66 12.88 16.712 2.412.851 5.516 2.119 6.758 2.484 5.432 1.598 5.64 4.31 4.745 6.775-.895 2.465-4.507 3.523-7.987 2.151-2.429-.957-6.232-4.632-6.497-5a1.82 1.82 0 0 0-.99-.601l-.027-.006a1.802 1.802 0 0 0-1.41.287l-8.487 5.922a1.82 1.82 0 0 0-.399 2.604c4.908 6.347 12.1 9.704 20.476 9.704 12.477 0 21.358-7.732 21.358-18.22 0-6.889-3.752-11.788-13.856-16.075v-.001ZM314.04 37.968a81.996 81.996 0 1 0 0 163.992 81.996 81.996 0 0 0-.001-163.992h.001Zm0 121.995a40.003 40.003 0 0 1-36.955-24.692 39.996 39.996 0 0 1 52.261-52.261 39.998 39.998 0 0 1 24.692 36.955 40.043 40.043 0 0 1-39.999 39.998h.001ZM561.297 39.967H449.3a3.999 3.999 0 0 0-4 4v32a4 4 0 0 0 4 3.999h75.997v69.997a10.001 10.001 0 0 1-10 10H485.3a40.057 40.057 0 0 1-39.84-36.413 3.964 3.964 0 0 0-3.962-3.585H409.42a3.972 3.972 0 0 0-2.908 1.225 3.98 3.98 0 0 0-1.101 2.957 80 80 0 0 0 79.89 75.815h35.998a3.995 3.995 0 0 0 2.828-1.172 3.995 3.995 0 0 0 1.172-2.828v-16a20 20 0 0 1 20-20l15.999.001a3.995 3.995 0 0 0 2.828-1.172 3.995 3.995 0 0 0 1.172-2.828V43.967a3.997 3.997 0 0 0-4.001-4ZM200.815 79.966a20 20 0 0 1-20-20.039l.032-15.96a3.997 3.997 0 0 0-4-4H44.852a4 4 0 0 0-4 4v151.995a3.999 3.999 0 0 0 4 4h32a4 4 0 0 0 3.999-4V89.96a10 10 0 0 1 10-10h10a10 10 0 0 1 9.999 10v65.9c0 1.061.421 2.078 1.172 2.828a3.995 3.995 0 0 0 2.828 1.172h31.999a3.995 3.995 0 0 0 2.828-1.172 3.995 3.995 0 0 0 1.172-2.828v-65.9a10.001 10.001 0 0 1 10-10h9.954a10 10 0 0 1 10 9.995l.044 106.006c0 1.061.421 2.078 1.172 2.828a3.995 3.995 0 0 0 2.828 1.172h31.999a3.995 3.995 0 0 0 2.828-1.172 3.995 3.995 0 0 0 1.172-2.828V83.966a3.997 3.997 0 0 0-4-4h-16.031ZM229.412 219.985h111.996a4 4 0 0 1 4 4v15.978a20 20 0 0 0 19.973 20l16.026.02a4 4 0 0 1 4 4V375.98a3.999 3.999 0 0 1-4 4h-31.999a4 4 0 0 1-4-4V269.983a10.002 10.002 0 0 0-9.993-10h-60.01a10.002 10.002 0 0 0-9.994 10v105.996a3.999 3.999 0 0 1-4 4h-31.999a4 4 0 0 1-4-4V223.985a4 4 0 0 1 4-4ZM196.847 259.984l-16.078-.063a19.998 19.998 0 0 1-19.921-20v-15.936a3.995 3.995 0 0 0-1.172-2.828 3.995 3.995 0 0 0-2.828-1.172H120.85a80.004 80.004 0 0 0-56.567 23.43 80.01 80.01 0 0 0-23.43 56.567v75.997a3.999 3.999 0 0 0 4 4h31.999a4 4 0 0 0 3.999-4v-75.997a40 40 0 0 1 39.999-39.998h30.005a10 10 0 0 1 9.993 9.999v19.999a10.001 10.001 0 0 1-10 10H106.85a3.995 3.995 0 0 0-2.828 1.172 3.995 3.995 0 0 0-1.172 2.828v31.999c0 1.061.421 2.078 1.172 2.828a3.995 3.995 0 0 0 2.828 1.172h44.005a10 10 0 0 1 9.993 9.999v26c0 1.061.421 2.078 1.172 2.828a3.995 3.995 0 0 0 2.828 1.172h31.999a3.995 3.995 0 0 0 2.828-1.172 3.995 3.995 0 0 0 1.172-2.828V263.982a3.995 3.995 0 0 0-1.172-2.828 3.995 3.995 0 0 0-2.828-1.172v.002ZM484.173 259.985h77.125a4 4 0 0 0 4-4v-32a4 4 0 0 0-4-4h-77.054c-34.27 0-65.04 22.002-75.086 54.766-16.39 53.454 21.645 102.542 71.968 105.127a3.974 3.974 0 0 0 3.861-2.431c.21-.5.316-1.037.311-1.579v-25.884a10 10 0 0 1 9.994-10h20.012a10.002 10.002 0 0 1 9.994 10v26.001a3.999 3.999 0 0 0 4 4h32a4 4 0 0 0 4-4v-72a4 4 0 0 0-4-4h-72a4 4 0 0 0-4 4v21.128a11.373 11.373 0 0 1-4.051 8.718 11.375 11.375 0 0 1-9.283 2.496 25.853 25.853 0 0 1-11.424-4.963c-12.943-10.246-19.447-28.285-12.268-46.97a38.379 38.379 0 0 1 35.901-24.409Z"/></g><defs><clipPath id="clip0_1298_9455"><path fill="#fff" d="M0 0h605.295v509.244H0z"/></clipPath></defs></svg>